<svg xmlns="http://www.w3.org/2000/svg" aria-hidden="true" style="position:absolute;width:0;height:0;overflow:hidden"><defs><symbol id="icon-antenna" viewBox="0 0 32 32"><path fill="#212121" d="m30.773 22.098-8.443-8.505.937-4.616c.225.09.485.144.758.146h.033a2.16 2.16 0 1 0-2.029-1.42l-.005-.015-4.96.606L8.973.161a.53.53 0 0 0-.376-.16.536.536 0 0 0-.373.155L6.712 1.66a.535.535 0 0 0 0 .754l.814.825C6.383 5.301 5.71 7.761 5.71 10.378c0 4.106 1.656 7.824 4.336 10.525l-.001-.001a.49.49 0 0 0 .146.097 2.986 2.986 0 0 0-.052.546v6.188h-6.4a2.669 2.669 0 0 0-2.667 2.666v1.067c0 .295.239.534.534.534H26.14a.534.534 0 0 0 .533-.534v-1.067a2.67 2.67 0 0 0-2.666-2.666h-6.4v-2.742a14.784 14.784 0 0 0 10.166-1.502l-.077.039.818.823a.534.534 0 0 0 .376.16.536.536 0 0 0 .373-.155l1.512-1.504a.535.535 0 0 0 0-.754zM23.28 6.233a1.067 1.067 0 1 1 .752 1.822h-.004a1.066 1.066 0 0 1-.747-1.822h-.002zm-1.256 3.504-.598 2.946-1.175-1.183 1.774-1.763zm-.605-.902-1.92 1.909-1.486-1.493 3.406-.416zM24.004 28.8a1.6 1.6 0 0 1 1.6 1.6v.534H2.138V30.4a1.6 1.6 0 0 1 1.6-1.6h20.267zm-7.466-2.134v1.067h-5.334v-1.067h5.334zM11.204 25.6v-4.053c0-1.294 1.196-2.346 2.667-2.346s2.667 1.053 2.667 2.346V25.6h-5.334zm6.4-1.696v-2.357c0-1.882-1.675-3.413-3.733-3.413h-.058c-1.353 0-2.54.707-3.213 1.771l-.009.016a13.817 13.817 0 0 1-3.812-9.55c0-2.314.567-4.496 1.569-6.414l-.036.077 18.602 18.709c-1.823.947-3.979 1.502-6.266 1.502-1.079 0-2.128-.124-3.136-.357l.093.018zm11.289-.684L7.836 2.039l.754-.752 7.935 7.98c.004 0 .006.007.01.01l13.114 13.191-.757.752z" style="fill:var(--color1, #212121)"/><path fill="#2196f3" d="M13.876 20.267h-.007a1.6 1.6 0 0 0-.003 3.2h.007a1.6 1.6 0 0 0 .002-3.2zm.373 1.978a.534.534 0 1 1-.378-.912.533.533 0 0 1 .374.911h.005z" style="fill:var(--color2, #2196f3)"/></symbol><symbol id="icon-astronaut" viewBox="0 0 32 32"><path fill="#2196f3" d="M31.974 4.524a.535.535 0 0 0-.427-.362h-.003l-1.911-.278-.855-1.731c-.179-.365-.777-.365-.956 0l-.855 1.731-1.911.278a.534.534 0 0 0-.296.91l1.383 1.348-.326 1.903a.532.532 0 0 0 .774.562l1.709-.899 1.709.899a.534.534 0 0 0 .773-.565v.003l-.326-1.903 1.383-1.348a.535.535 0 0 0 .134-.55l.001.004zm-2.463 1.327a.53.53 0 0 0-.153.472l.191 1.114-1-.526a.525.525 0 0 0-.501.001l.003-.001-1 .526.191-1.114a.53.53 0 0 0-.152-.472l-.811-.79 1.119-.162a.532.532 0 0 0 .402-.292l.5-1.013.5 1.013a.532.532 0 0 0 .402.292l1.119.162-.809.79zm-3.377 14.671h-1.067v1.067h1.067v-1.067zm0 2.134h-1.067v1.066h1.067v-1.066zm1.066-1.067h-1.067v1.067H27.2v-1.067zm-2.133 0H24v1.067h1.067v-1.067zm-2.667 4.8h-1.067v1.067H22.4v-1.067zm0 2.134h-1.067v1.067H22.4v-1.067zm1.067-1.067H22.4v1.067h1.067v-1.067zm-2.133 0h-1.067v1.067h1.067v-1.067zM16 24.256h-1.066v1.067H16v-1.067zm0 2.133h-1.066v1.067H16v-1.067zm1.067-1.067H16v1.067h1.067v-1.067zm-2.133 0h-1.067v1.067h1.067v-1.067zm-9.067-19.2H4.801v1.066h1.066V6.122zm0 2.134H4.801v1.066h1.066V8.256zm1.066-1.067H5.866v1.067h1.066V7.189zm-2.133 0H3.733v1.067H4.8V7.189z" style="fill:var(--color2, #2196f3)"/><path fill="#212121" d="M24.715 14.16a1.776 1.776 0 0 0-1.179-.703l-.009-.001a1.769 1.769 0 0 0-1.344.355l.004-.003-1.253.96-1.898 1.417-1.358-.541c2.421-1.086 4.113-3.508 4.113-6.32 0-3.823-3.122-6.934-6.961-6.934S7.869 5.5 7.869 9.324c0 1.386.415 2.674 1.12 3.759l-2.768-.024c-.009 0-.016.005-.023.005a.511.511 0 0 0-.159.033l.004-.001c-.013.005-.026.007-.038.013-.006.003-.013.003-.019.006l-3.233 1.596-.001.001-1.893.91a.5.5 0 0 0-.065.036l.001-.001a1.782 1.782 0 0 0-.594 2.306l-.005-.01c.22.424.592.742 1.043.885l.013.003a1.772 1.772 0 0 0 1.388-.133l-.009.005 1.388-.738 2.264-1.169 1.357-.008-5.442 5.415-.001.001-1.339 1.333a1.643 1.643 0 0 0-.491 1.173v.005a1.668 1.668 0 0 0 1.667 1.664h.002a1.67 1.67 0 0 0 1.18-.485l1.314-1.309 1.741-1.3.901.897L4.07 27.28a1.643 1.643 0 0 0-.491 1.173v.004a1.662 1.662 0 0 0 1.666 1.664h.003a1.67 1.67 0 0 0 1.18-.485l4.488-4.472c.007-.006.016-.009.022-.016l5.166-5.658 3.471.494a.474.474 0 0 0 .262-.032c.017-.006.032-.015.049-.023.019-.01.039-.015.058-.027l3.213-2.133c.012-.008.018-.021.029-.03.013-.01.029-.014.041-.026l1.271-1.191c.348-.326.564-.787.564-1.3 0-.4-.132-.769-.355-1.066l.003.005zM2.13 17.77a.706.706 0 0 1-.564.05l.005.001a.717.717 0 0 1-.215-1.258l.002-.001 1.314-.632.316.924.133.389-.992.527zm3.497-1.828-1.548.8-.255-.746-.184-.537 2.027-1.001-.04 1.484zm15.1-6.62c0 .918-.219 1.785-.599 2.56l-4.181-1.899a1.865 1.865 0 0 0-.782-1.384l-.006-.004 1.464-4.861c2.377.757 4.104 2.975 4.104 5.588zm-11.789 0c0-3.235 2.644-5.867 5.894-5.867.253 0 .5.022.745.053l-1.432 4.753c-.019 0-.037-.006-.057-.006h-.001a1.872 1.872 0 0 0-1.872 1.867 1.873 1.873 0 0 0 1.872 1.867h.001c.695 0 1.295-.383 1.618-.944l3.863 1.755a5.891 5.891 0 0 1-4.737 2.39c-3.25 0-5.894-2.632-5.894-5.867zm5.957.8c0 .441-.362.8-.806.8h-.001a.804.804 0 0 1-.804-.8c0-.441.361-.8.806-.8s.806.359.806.8zM2.464 25.146a.606.606 0 0 1-.855.001.591.591 0 0 1 0-.844l.962-.959.852.848-.959.954zm3.214 3.734a.606.606 0 0 1-.855.001.591.591 0 0 1 0-.844l.963-.959.852.848-.96.955zm3.482-3.469-.001.001-1.765 1.76-.852-.848 1.765-1.757a.527.527 0 0 0 .09-.136c.007-.014.02-.026.026-.04.016-.041.019-.085.026-.128.003-.025.014-.048.014-.073 0-.035-.013-.07-.02-.105-.006-.032-.006-.064-.019-.096a.536.536 0 0 0-.092-.138c-.01-.012-.014-.026-.025-.038h-.001l-.001-.002-1.607-1.6c-.017-.017-.039-.024-.058-.038a.491.491 0 0 0-.084-.056l-.003-.001a.527.527 0 0 0-.09-.031l-.003-.001a.502.502 0 0 0-.101-.02h-.025a.603.603 0 0 0-.075.005h.003c-.036.005-.069.009-.104.021s-.064.027-.094.045c-.02.011-.043.015-.061.029l-1.774 1.324-.901-.897 2.399-2.386 4.36 4.289-.928.919zm6.819-7.017c-.016-.002-.03.004-.046.003l-.027-.001a.562.562 0 0 0-.092.008h.003a.484.484 0 0 0-.187.07l.002-.001a.492.492 0 0 0-.083.061c-.013.011-.028.016-.04.029l-4.698 5.146-4.328-4.256 2.833-2.818a.535.535 0 0 0-.378-.911h-.002l-2.219.013.028-1.607 3.104.027a6.928 6.928 0 0 0 4.978 2.101h.003c.438 0 .864-.046 1.28-.122.04.032.08.064.129.085l2.41.96.152.758.178.886-3.003-.427zm4.041.178-.313-1.558 1.446-1.08.946 1.257-2.08 1.381zm3.753-2.831-.837.785-.931-1.236.831-.637a.735.735 0 0 1 .543-.143.718.718 0 0 1 .621.71.71.71 0 0 1-.226.521z" style="fill:var(--color1, #212121)"/><path fill="#212121" d="m13.602 18.544-2.143-2.134a.53.53 0 0 0-.752 0l-2.143 2.133a.535.535 0 0 0 0 .756l2.142 2.134a.53.53 0 0 0 .752 0l2.143-2.134a.532.532 0 0 0 0-.756zm-2.519 1.759-1.387-1.381 1.386-1.381 1.387 1.381-1.387 1.381zm6.081-15.232-.258 1.036c.071.018 1.738.452 1.738 2.149h1.067c0-2.017-1.666-2.965-2.547-3.184zm2.547 4.251h-1.067v1.066h1.067V9.322z" style="fill:var(--color1, #212121)"/></symbol><symbol id="icon-client1" viewBox="0 0 32 32"><path d="m11.378 9.113 2.099 1.986-3.895-.002v9.638h10.18V17.05l2.096 1.984V9.113h-10.48zm8.291 7.704-5.949-5.632h5.949v5.632zm-1.847 2.508h-6.63v-6.481h.469v6.042h6.161v.438zm-5.064 2.693-.245.505-.245-.505h-.205l.358.673v.392h.186v-.392l.357-.673h-.204zm.308 1.065.086-.248h.412l.087.248h.193l-.403-1.064h-.166l-.402 1.064h.192zm.292-.839.154.441h-.308l.154-.442zm.975.416a.236.236 0 0 0-.04.132v.004c0 .09.031.163.094.218s.148.084.253.084h.011a.44.44 0 0 0 .263-.087l-.001.001.06.071h.206l-.156-.185a.528.528 0 0 0 .093-.3l-.001-.023v.001h-.154v.005a.42.42 0 0 1-.046.193l.001-.003-.205-.243.072-.053a.43.43 0 0 0 .109-.108l.001-.001.001-.002a.23.23 0 0 0 .034-.12v-.007a.22.22 0 0 0-.074-.164.265.265 0 0 0-.18-.069h-.011c-.086 0-.154.025-.204.073s-.076.114-.076.198c0 .034.008.069.024.106s.046.081.087.133a.622.622 0 0 0-.157.145l-.001.001zm.481.236a.265.265 0 0 1-.168.06H14.637a.174.174 0 0 1-.119-.047.161.161 0 0 1-.048-.114v-.006c0-.057.029-.108.088-.152l.023-.016.232.275zm-.191-.472c-.051-.062-.075-.113-.075-.154 0-.035.011-.065.031-.088a.102.102 0 0 1 .078-.035h.008a.11.11 0 0 1 .076.03.094.094 0 0 1 .031.07v.004a.13.13 0 0 1-.045.099l-.023.018-.081.056zm1.732.578a.388.388 0 0 0 .126-.265v-.001h-.184c-.01.076-.033.13-.07.163s-.091.049-.164.049c-.079 0-.14-.03-.181-.091s-.062-.148-.062-.263V22.5a.44.44 0 0 1 .066-.258.216.216 0 0 1 .175-.088h.012-.001c.069 0 .122.017.157.051s.058.089.067.165h.184c-.012-.116-.053-.207-.125-.271s-.166-.096-.284-.096h-.016a.404.404 0 0 0-.366.234l-.001.003-.001.003a.616.616 0 0 0-.054.253v.112c.002.098.02.184.055.258s.085.131.149.172c.062.038.137.06.217.06h.008a.425.425 0 0 0 .291-.095zm1.087-.149a.658.658 0 0 0 .054-.275v-.07a.638.638 0 0 0-.057-.266l.002.004a.419.419 0 0 0-.152-.178l-.002-.001-.002-.001c-.067-.042-.144-.063-.231-.063s-.163.021-.231.063a.41.41 0 0 0-.154.179l-.001.003a.622.622 0 0 0-.055.259v.077a.633.633 0 0 0 .056.269.425.425 0 0 0 .155.18l.002.001c.064.04.141.063.224.063h.016a.418.418 0 0 0 .224-.064l-.002.001a.417.417 0 0 0 .154-.179l.001-.003zm-.198-.602a.465.465 0 0 1 .067.272v.056a.47.47 0 0 1-.066.273.218.218 0 0 1-.179.094h-.019a.219.219 0 0 1-.181-.095v-.001l-.001-.001a.466.466 0 0 1-.068-.271v-.061a.458.458 0 0 1 .069-.266.22.22 0 0 1 .18-.094h.017a.22.22 0 0 1 .18.094v.001z"/></symbol><symbol id="icon-client2" viewBox="0 0 32 32"><path d="M15.005 8.794h-.041a4.63 4.63 0 0 0-.186-.007h-.139c-.119 0-.24.003-.36.009l-.013-.001-.014.001h.001a8.447 8.447 0 0 0-3.199.825l.051-.022-.129.062v6.63l.303-.103c.195-.071.476-.157.761-.232l.081-.018a9.738 9.738 0 0 1 2.411-.322h.012v.871a6.717 6.717 0 0 0-.319.009H14.2c-.68.038-1.318.14-1.932.301l.067-.015a9.428 9.428 0 0 0-2.27.89l.049-.025V9.145a8.492 8.492 0 0 1 2.209-.921l.06-.013.062-.013a8.56 8.56 0 0 1 2.194-.284h.13a9.8 9.8 0 0 1 .442.021c.369.026.735.084 1.094.175v.857a6.083 6.083 0 0 0-1.017-.157l-.021-.001-.022-.001-.022-.002c-.074-.006-.148-.012-.217-.012zm1.509.877c.19.015.387.021.586.021a9.491 9.491 0 0 0 2.442-.326l-.066.015-.066.015a9.445 9.445 0 0 0 2.318-.916l-.048.025-.049.025v8.351a8.534 8.534 0 0 1-2.208.921l-.061.014-.062.013a8.71 8.71 0 0 1-2.195.282h-.056a6.72 6.72 0 0 1-1.659-.207l.047.01V9.509a6.93 6.93 0 0 0 1.078.161zm4.25.065-.303.102c-.278.094-.56.177-.842.252a10.04 10.04 0 0 1-2.515.323h-.002c-.198 0-.38-.006-.555-.017l-.241-.016v6.82l.208.018c.192.017.391.025.591.025a8.074 8.074 0 0 0 2.095-.283l-.113.026a8.169 8.169 0 0 0 1.647-.6l-.048.022-.049.022.129-.062V9.737zM10.7 20.555a.445.445 0 0 0-.321-.136l-.017.001h-.007a.493.493 0 0 0-.193.039l.003-.001.003-.001a.442.442 0 0 0-.247.246l-.001.003-.001.003a.484.484 0 0 0-.035.182V22.052c0 .078.016.151.046.218l-.001-.003c.028.06.066.111.113.152h.001a.38.38 0 0 0 .153.08l.003.001a.658.658 0 0 0 .17.024.479.479 0 0 0 .47-.478v-.127h-.298v.108a.256.256 0 0 1-.018.096l.001-.002a.18.18 0 0 1-.043.064.198.198 0 0 1-.124.043l-.018.001a.149.149 0 0 1-.12-.061l-.001-.001a.267.267 0 0 1-.04-.141V20.944c0-.058.014-.112.038-.161l-.001.002a.151.151 0 0 1 .127-.07l.019.001h.005c.052 0 .098.025.127.064l.001.001c.031.04.049.09.049.145v.105h.294v-.121a.537.537 0 0 0-.039-.201l.001.004.001.003a.462.462 0 0 0-.1-.16zm1.764-.013a.513.513 0 0 0-.519-.092l.004-.001a.478.478 0 0 0-.27.246l-.001.003-.001.003a.527.527 0 0 0-.043.209v.011-.001 1.103a.52.52 0 0 0 .045.212l-.001-.003c.028.06.067.111.114.152l.001.001a.474.474 0 0 0 .153.095l.003.001a.518.518 0 0 0 .517-.097h-.001l-.001.001a.48.48 0 0 0 .111-.149l.001-.003a.524.524 0 0 0 .043-.209v-.015.001-1.099a.54.54 0 0 0-.046-.217l.001.003.001.003a.505.505 0 0 0-.111-.159zm-.138 1.468.001.017a.2.2 0 0 1-.059.141.217.217 0 0 1-.28 0h.001a.191.191 0 0 1-.059-.139v-.001l.001-.018v.001-1.09l-.001-.017c0-.055.023-.105.059-.14a.217.217 0 0 1 .28 0h-.001a.191.191 0 0 1 .059.139v.001l-.001.018v-.001 1.09zm2.455.487v-2.063h-.285l-.375 1.092h-.005l-.378-1.092h-.282v2.063h.295v-1.255h.006l.289.887h.147l.291-.887h.006v1.255h.295zm1.674-1.918a.404.404 0 0 0-.164-.112l-.003-.001a.642.642 0 0 0-.201-.032h-.451v2.063h.294v-.806h.151l.024.001a.546.546 0 0 0 .245-.058l-.003.001a.435.435 0 0 0 .159-.154l.001-.002.001-.002a.497.497 0 0 0 .067-.177v-.003c.01-.064.016-.137.016-.212v-.057a1.2 1.2 0 0 0-.031-.269l.002.008a.448.448 0 0 0-.108-.19zm-.151.629a.24.24 0 0 1-.029.11l.001-.001.001-.002a.169.169 0 0 1-.074.071h-.001l-.001.001a.287.287 0 0 1-.122.026h-.002l-.016-.001h-.134v-.701h.152l.014-.001c.043 0 .084.01.12.027l-.002-.001c.03.018.054.043.068.074v.001l.001.001a.303.303 0 0 1 .026.115v.137c0 .048.003.098 0 .141h-.003zm1.544-.773h-.241l-.455 2.063h.294l.086-.443h.401l.086.443h.294l-.465-2.063zm-.272 1.338.145-.748h.006l.144.748h-.294zm2.17-.096h-.006l-.444-1.242h-.282v2.063h.294v-1.241h.006l.449 1.24h.277v-2.063h-.294v1.242zm1.796-1.242-.236.82H21.3l-.236-.82h-.311l.404 1.191v.872h.294v-.872l.404-1.191h-.312zM9.881 23.08h.141v.397h.096v-.397h.141v-.081h-.378v.082zm1.19-.082-.186.479h.102l.039-.109h.191l.041.109h.105l-.19-.479h-.102zm-.015.29.065-.177.065.177h-.13zm1.193.012h.111v.062a.182.182 0 0 1-.114.04h-.007a.125.125 0 0 1-.095-.045.197.197 0 0 1-.035-.113v-.001l.001-.011v.001c0-.107.046-.16.138-.16l.01-.001c.047 0 .086.032.098.076v.002l.095-.019c-.02-.093-.088-.141-.203-.141h-.006a.236.236 0 0 0-.161.062.232.232 0 0 0-.069.185v-.002.011c0 .065.023.123.062.169l-.001-.001a.229.229 0 0 0 .166.071h.001l.015-.001h.007a.282.282 0 0 0 .195-.077v-.189h-.208v.081zm1.202-.302h-.097v.479h.335v-.081h-.239v-.397zm1.016 0h-.097v.479h.097v-.479zm.993.32-.196-.32h-.094v.479h.09v-.313l.193.313h.097v-.479h-.089v.32zm.899-.052h.239v-.081h-.239v-.105h.257v-.082h-.354v.479h.363v-.081h-.267v-.13zm2.179-.079h-.189v-.189h-.096v.479h.096v-.209h.189v.209h.097v-.479h-.097v.189zm.903.079h.24v-.081h-.24v-.105h.258v-.082h-.353v.479h.363v-.081h-.267v-.13zm1.225 0c.084-.013.126-.057.126-.133l.001-.013a.117.117 0 0 0-.047-.093h-.001a.267.267 0 0 0-.121-.029h-.001l-.02.001h-.202v.479h.097v-.2h.027c.019 0 .037.004.053.011l-.001-.001a.1.1 0 0 1 .034.034l.104.152h.115l-.058-.093a.342.342 0 0 0-.104-.113l-.001-.001-.001-.001zm-.097-.066h-.071v-.12h.076l.02-.001c.027 0 .054.005.079.013l-.002-.001a.063.063 0 0 1-.004.097.271.271 0 0 1-.078.012h-.002l-.019-.001h.001zm1.022.066h.239v-.081h-.239v-.105h.258v-.082h-.354v.479h.363v-.081h-.267v-.13z"/></symbol><symbol id="icon-client3" viewBox="0 0 32 32"><path d="M10.901 21.719a.04.04 0 0 1 .026.01l.065.062a.543.543 0 0 1-.18.117l-.004.001a.693.693 0 0 1-.241.043h-.034a.68.68 0 0 1-.235-.042l.005.002a.531.531 0 0 1-.186-.113l.001.001a.526.526 0 0 1-.117-.166L10 21.631l-.001-.003a.557.557 0 0 1-.042-.215V21.395c0-.153.066-.29.171-.384l.001-.001a.602.602 0 0 1 .192-.112l.004-.001a.765.765 0 0 1 .253-.039h.016c.078 0 .153.013.223.038l-.005-.002a.626.626 0 0 1 .176.101l-.055.066-.013.012a.037.037 0 0 1-.018.005h-.004a.048.048 0 0 1-.024-.007l-.029-.018-.041-.023a.439.439 0 0 0-.124-.039h-.003l-.003-.001a.506.506 0 0 0-.09-.007h-.013a.53.53 0 0 0-.183.032l.004-.001.004-.001a.403.403 0 0 0-.143.085l.001-.001a.377.377 0 0 0-.091.131l-.001.002a.424.424 0 0 0-.033.166v.016c0 .062.012.121.034.175l-.001-.003a.38.38 0 0 0 .224.214l.003.001c.05.018.107.029.166.029h.002a.671.671 0 0 0 .1-.006.388.388 0 0 0 .217-.093h-.001l-.001.001a.047.047 0 0 1 .031-.011zm1.885-.313v.008a.54.54 0 0 1-.047.22l.001-.003.001-.003a.49.49 0 0 1-.122.17l-.001.001a.575.575 0 0 1-.185.11l-.004.001-.004.001a.786.786 0 0 1-.507-.003l.011.003a.574.574 0 0 1-.193-.114h.001l.001.001a.504.504 0 0 1-.122-.167l-.001-.003-.001-.003a.562.562 0 0 1 .003-.449l-.001.004-.002.004a.507.507 0 0 1 .124-.173.573.573 0 0 1 .191-.109.759.759 0 0 1 .507.003l-.005-.002-.006-.002a.574.574 0 0 1 .193.113.506.506 0 0 1 .168.377v.018-.001zm-.171 0v-.012a.447.447 0 0 0-.034-.172l.001.003.001.003a.373.373 0 0 0-.22-.215l-.003-.001-.003-.001a.577.577 0 0 0-.369.002l.004-.001.004-.001a.385.385 0 0 0-.138.084.343.343 0 0 0-.087.128l-.001.002-.001.002a.502.502 0 0 0 .002.362l-.001-.003-.001-.003a.37.37 0 0 0 .221.214l.003.001.003.001a.586.586 0 0 0 .361 0 .4.4 0 0 0 .138-.083.386.386 0 0 0 .087-.13l.001-.003a.442.442 0 0 0 .031-.166v-.012.001zm1.458.186.017.039a.354.354 0 0 1 .019-.039.42.42 0 0 1 .023-.043l-.001.002-.001.002.417-.659c.008-.011.016-.019.024-.021s.019-.004.029-.004h.129v1.072h-.146v-.821l-.001-.019.001-.02v.001l-.42.668a.069.069 0 0 1-.024.024h-.001a.068.068 0 0 1-.035.009h-.025a.074.074 0 0 1-.036-.009h.001a.069.069 0 0 1-.024-.024v-.001l-.432-.673v.86h-.141v-1.069h.129c.01 0 .02.001.029.004h-.001c.01.004.018.012.023.021l.426.66a.222.222 0 0 1 .021.037l.001.002zm1.569-.054v.401h-.163v-1.07h.364a.768.768 0 0 1 .203.024.413.413 0 0 1 .145.068l-.001-.001a.276.276 0 0 1 .08.102l.001.002.001.002a.315.315 0 0 1 .028.132v.012a.296.296 0 0 1-.117.236l-.001.001-.001.001a.41.41 0 0 1-.142.07l-.003.001a.649.649 0 0 1-.181.025h-.015l-.197-.003zm0-.115h.203a.471.471 0 0 0 .125-.017l-.003.001a.272.272 0 0 0 .093-.047h-.001l-.001.001a.205.205 0 0 0 .075-.158V21.2l.001-.012a.185.185 0 0 0-.017-.078v.001l.001.001a.226.226 0 0 0-.056-.073l-.001-.001a.34.34 0 0 0-.193-.058h-.001l-.027.001h-.197v.441zm2.195.518h-.131a.065.065 0 0 1-.034-.01.069.069 0 0 1-.021-.024v-.001l-.111-.259h-.558l-.115.259a.061.061 0 0 1-.056.035h-.131l.49-1.072h.17l.496 1.072zm-.808-.398h.46l-.194-.436a.65.65 0 0 1-.036-.095l-.001-.005-.019.056a.437.437 0 0 1-.019.048l.001-.002-.193.435zm1.514-.668c.01.005.018.011.024.019l.715.808v-.832h.146v1.072h-.084a.071.071 0 0 1-.032-.007h.001a.086.086 0 0 1-.026-.02l-.713-.807.001.019-.001.019v-.001.797h-.146V20.87h.086c.01 0 .02.002.029.005h-.001zm2.087.64v.426h-.163v-.425l-.451-.646h.149c.012 0 .022.003.031.009a.1.1 0 0 1 .022.024l.282.417a.602.602 0 0 1 .048.091l.002.004.021-.046a.298.298 0 0 1 .029-.05l-.001.001.278-.419a.088.088 0 0 1 .021-.022.052.052 0 0 1 .032-.011h.151l-.452.648zm-6.638-2.444c.071.008.143.014.216.02 1.101-.428 2.033-1.129 2.679-2.014s.976-1.917.951-2.965l-1.214-1.054c.246 1.116.131 2.27-.333 3.332s-1.26 1.991-2.298 2.683z"/><path d="m13.558 19.021.033.006c1.109-.689 1.954-1.652 2.427-2.763s.551-2.32.225-3.47l-1.729-1.502c.699 1.235.981 2.617.811 3.985s-.781 2.667-1.767 3.744zm5.864-3.672c-.294 1.152-1.007 2.191-2.034 2.962a6.42 6.42 0 0 1-.931.586l-.037.017c.837-.213 1.605-.591 2.247-1.104s1.14-1.146 1.455-1.853l-.701-.609z"/><path d="m19.147 15.18-.998-.867c-.019.989-.343 1.955-.937 2.799s-1.438 1.534-2.443 1.998h.005c.224 0 .447-.012.67-.035.939-.333 1.769-.863 2.415-1.543s1.089-1.488 1.288-2.352zm-5.444-4.522-1.191-1.036c-1.065.358-1.98.986-2.627 1.803s-.995 1.785-.998 2.777c.004 1.096.428 2.159 1.206 3.022s1.864 1.475 3.088 1.741c1.092-1.157 1.732-2.585 1.826-4.079s-.363-2.975-1.304-4.228zm8.196 4.362c-.004-1.3-.601-2.546-1.659-3.466s-2.492-1.438-3.989-1.441h-.019c-.733 0-1.437.125-2.092.354l.089-.027 7.292 6.336a4.173 4.173 0 0 0 .377-1.747v-.01.001z"/></symbol><symbol id="icon-client4" viewBox="0 0 32 32"><path d="M7.23 13.336h-.001c-.718 0-1.3.517-1.3 1.155v.001c0 .638.582 1.155 1.3 1.155h.001c.718 0 1.3-.517 1.3-1.155v-.001c0-.638-.582-1.155-1.3-1.155zm9.596-.369c-.002-.886-.399-1.736-1.104-2.362s-1.661-.98-2.658-.982c-.998.002-1.954.354-2.659.981S9.302 12.08 9.3 12.967v4.888s7.526-.745 7.526-4.886v-.001zM3.294 19.458c.002.616.278 1.208.769 1.644s1.155.682 1.849.684c.694-.002 1.359-.248 1.849-.684s.767-1.027.769-1.643v-3.4s-5.236.519-5.236 3.4zm2.618.609c-.136 0-.268-.036-.381-.103s-.2-.162-.253-.273c-.052-.111-.066-.234-.039-.352s.091-.227.188-.312c.096-.085.218-.143.351-.167s.271-.011.396.035.232.124.308.225a.56.56 0 0 1-.084.771c-.064.057-.139.102-.223.133s-.173.047-.263.047v-.002zm5.291-.335h-.505v.522h-.263v-1.277h.831v.213h-.568v.33h.505v.212zm1.265-.088a.764.764 0 0 1-.067.331.503.503 0 0 1-.458.297h-.019.001a.504.504 0 0 1-.477-.293.74.74 0 0 1-.069-.316v-.011.001-.063c0-.126.022-.236.067-.332a.502.502 0 0 1 .459-.297h.018-.001a.507.507 0 0 1 .475.294l.001.003a.764.764 0 0 1 .069.331v.057zm-.266-.058c0-.134-.024-.236-.072-.305s-.116-.104-.205-.104h-.01a.23.23 0 0 0-.193.103l-.001.001a.534.534 0 0 0-.073.302v.062c0 .13.024.231.072.304s.117.108.207.108h.01c.08 0 .151-.041.193-.103l.001-.001a.552.552 0 0 0 .072-.304v-.062zm1.12.333v-.008a.133.133 0 0 0-.053-.106.655.655 0 0 0-.184-.083l-.005-.001a1.358 1.358 0 0 1-.224-.091l.008.004c-.145-.079-.217-.184-.217-.317 0-.069.019-.13.058-.184a.397.397 0 0 1 .165-.127l.003-.001c.073-.03.155-.045.246-.045s.172.017.244.05a.371.371 0 0 1 .225.342v.003h-.263c0-.058-.019-.104-.055-.136s-.089-.049-.155-.049H13.1a.232.232 0 0 0-.135.042l.001-.001a.127.127 0 0 0-.053.103v.004c0 .042.021.076.062.104s.104.054.185.079c.15.045.259.101.327.167s.103.15.103.249v.012a.307.307 0 0 1-.125.248l-.001.001a.556.556 0 0 1-.338.094.664.664 0 0 1-.268-.053.38.38 0 0 1-.248-.366h.264c0 .141.084.212.253.212h.014a.241.241 0 0 0 .133-.039l-.001.001a.125.125 0 0 0 .053-.102v-.006zm1.404-.729h-.391v1.064h-.263V19.19h-.386v-.213h1.04v.213zm.92.51h-.505v.342h.593v.212h-.856v-1.277h.854v.213h-.591v.304h.505v.206zm.714.086h-.209v.468h-.263v-1.277h.474c.151 0 .267.034.349.101s.123.162.123.285v.014a.39.39 0 0 1-.058.206l.001-.002a.393.393 0 0 1-.169.138l-.003.001.276.522v.012h-.282l-.24-.468zm-.209-.213h.212a.218.218 0 0 0 .153-.05.18.18 0 0 0 .055-.129V19.373a.195.195 0 0 0-.052-.132c-.034-.034-.086-.052-.157-.052h-.212v.383zm1.594.23v.45h-.263v-1.277h.498c.096 0 .18.017.253.053.136.064.228.2.228.358v.013-.001.016c0 .112-.05.212-.129.28a.534.534 0 0 1-.355.108h-.231zm0-.212h.235c.07 0 .122-.016.159-.049s.055-.08.055-.14c0-.062-.019-.113-.055-.152s-.088-.058-.153-.059h-.241v.401zm1.666.109h-.505v.342h.593v.212h-.856v-1.277h.854v.213h-.591v.304h.505v.206zm1.221-.51h-.391v1.064h-.263V19.19h-.386v-.213h1.04v.213zm.919.51h-.505v.342h.593v.212h-.856v-1.277h.854v.213h-.591v.304h.505v.206zm.715.086h-.209v.468h-.263v-1.277h.474c.151 0 .267.034.349.101s.123.162.123.285v.014a.39.39 0 0 1-.058.206l.001-.002a.393.393 0 0 1-.169.138l-.003.001.276.522v.012h-.282l-.24-.468zm-.21-.213h.212a.218.218 0 0 0 .153-.05.18.18 0 0 0 .055-.129V19.373a.195.195 0 0 0-.052-.132c-.034-.034-.086-.052-.157-.052h-.212v.383zm1.547.346v-.008a.133.133 0 0 0-.053-.106.655.655 0 0 0-.184-.083l-.005-.001a1.358 1.358 0 0 1-.224-.091l.008.004c-.145-.079-.218-.184-.218-.317 0-.069.019-.13.058-.184a.397.397 0 0 1 .165-.127l.003-.001c.073-.03.155-.045.246-.045s.172.017.244.05c.069.03.125.078.165.138l.001.001c.037.056.06.125.06.199v.007h-.263c0-.058-.019-.104-.055-.136s-.089-.049-.155-.049h-.015a.232.232 0 0 0-.135.042l.001-.001a.127.127 0 0 0-.053.103v.004c0 .042.021.076.062.104s.104.054.185.079c.15.045.259.101.327.167s.103.15.103.249v.013a.306.306 0 0 1-.125.247l-.001.001a.556.556 0 0 1-.338.094.664.664 0 0 1-.268-.053.425.425 0 0 1-.184-.147l-.001-.001a.382.382 0 0 1-.063-.21v-.009h.264c0 .141.084.212.253.212h.015a.241.241 0 0 0 .133-.039l-.001.001a.125.125 0 0 0 .053-.102v-.006z"/></symbol><symbol id="icon-client5" viewBox="0 0 32 32"><path d="M8.011 20.412a.43.43 0 0 1 .111.289l-.001.026v-.001.001a.418.418 0 0 1-.042.184l.001-.003.001-.003a.471.471 0 0 1-.129.166l-.001.001-.001.001a.769.769 0 0 1-.441.137l-.058-.002h.003-.867v-1.853h.852a.766.766 0 0 1 .477.126l-.003-.002-.003-.002a.445.445 0 0 1 .126.153l.001.003c.024.05.039.109.039.171l-.001.021v-.001.018a.403.403 0 0 1-.1.266.467.467 0 0 1-.256.144h-.003a.501.501 0 0 1 .293.158zm-1.019-.279h.364a.36.36 0 0 0 .233-.063l-.001.001a.233.233 0 0 0 .061-.079l.001-.001.001-.002a.192.192 0 0 0 .017-.081v-.001l-.001-.019v.001l.001-.016a.203.203 0 0 0-.018-.085l.001.001.001.001a.227.227 0 0 0-.06-.082h-.001a.368.368 0 0 0-.208-.063h-.001l-.03.001h-.357v.487zm.631.71a.24.24 0 0 0 .066-.082l.001-.001.001-.002a.206.206 0 0 0 .019-.087v-.002l-.001-.015v.001l.001-.013v-.001a.222.222 0 0 0-.021-.093l.001.001.001.001a.231.231 0 0 0-.067-.084h-.001l-.001-.001a.389.389 0 0 0-.222-.068h-.001l-.025.001h-.381v.51h.387l.023.001a.406.406 0 0 0 .223-.066l-.002.001zm2.129.366-.473-.725h-.178v.725h-.408v-1.854h.771a.802.802 0 0 1 .541.161l-.002-.001-.002-.002a.571.571 0 0 1 .185.412v.001a.553.553 0 0 1-.129.356l.001-.001.001-.001a.646.646 0 0 1-.361.188h-.004l-.003.001.505.741h-.443zm-.652-.977h.333c.231 0 .348-.093.348-.281l.001-.015a.26.26 0 0 0-.02-.101l.001.002.001.002a.274.274 0 0 0-.066-.096.377.377 0 0 0-.229-.076l-.036.002h.002-.336l.004.564zm2.88.603h-.812l-.143.373h-.427l.746-1.833h.462l.743 1.833h-.427l-.14-.373zm-.109-.28-.297-.783-.297.783h.593zm2.897.654h-.404l-.907-1.26v1.26h-.404v-1.854h.404l.907 1.268v-1.268h.404v1.854zm2.309-.444a.851.851 0 0 1-.361.325l-.005.002a1.262 1.262 0 0 1-.536.117l-.033-.001h-.72v-1.854l.754-.001c.194 0 .378.042.543.117l-.008-.003a.841.841 0 0 1 .366.323.996.996 0 0 1-.003.977l.003-.005zm-.463-.044a.644.644 0 0 0 .179-.442.643.643 0 0 0-.179-.442.738.738 0 0 0-.459-.159l-.052.002h.002-.278v1.2h.281a.738.738 0 0 0 .51-.159l-.002.001-.002.001zM12.233 9.044s5.221 1.805 5.11 4.417v4.418s-5.218-1.805-5.109-4.418l-.002-4.417zm9.762 7.8a7.486 7.486 0 0 1 3.287-1.117l.031-.002v-1.383c-1.372.485-2.536 1.363-3.317 2.503z"/><path d="M21.403 17.26c.807-1.488 2.206-2.636 3.91-3.209v-3.985s-7.436 2.571-7.279 6.291v6.289s.331-.115.853-.331c0-.201 0-.404.024-.608.154-1.726 1.05-3.326 2.492-4.449z"/><path d="M20.696 19.597c.039-.436.126-.868.26-1.288-.898.968-1.442 2.171-1.555 3.437-.011.12-.017.239-.02.362a19.27 19.27 0 0 0 1.658-.803l-.108.054-.12.059a5.807 5.807 0 0 1-.14-1.284c0-.189.009-.376.026-.561l-.002.024zm.295.022a5.734 5.734 0 0 0 .105 1.724l-.007-.038-.007-.037c2.032-1.113 4.314-2.833 4.226-4.911v-.181c-1.452.149-2.809.73-3.865 1.654a5.489 5.489 0 0 0-.45 1.746l-.002.022-.002.022z"/></symbol><symbol id="icon-client6" viewBox="0 0 32 32"><path d="M15.996 15.224a.872.872 0 0 1-.183-.536l.002-.064v.006-.863c0-.264.06-.465.18-.604s.326-.206.618-.205c.275 0 .47.059.585.176a.713.713 0 0 1 .173.516v.203h-.491V13.62a.961.961 0 0 0-.016-.179l.001.006a.192.192 0 0 0-.07-.119l-.001-.001a.276.276 0 0 0-.156-.047h-.001l-.022.001h.001l-.021-.001h-.001a.3.3 0 0 0-.167.051l.001-.001.001-.001a.232.232 0 0 0-.081.129v.004a.99.99 0 0 0-.02.195v1.066a.534.534 0 0 0 .063.294.231.231 0 0 0 .097.071l.002.001a.274.274 0 0 0 .129.016h-.002a.256.256 0 0 0 .175-.049l-.001.001-.001.001a.209.209 0 0 0 .073-.124v-.002c.011-.07.017-.14.015-.21v-.213h.491v.194a.78.78 0 0 1-.172.546l.001-.001.001-.002c-.113.128-.305.192-.588.192s-.496-.069-.618-.211zm2.046.009c-.124-.135-.186-.33-.186-.589v-.908c0-.257.062-.451.186-.582s.331-.197.623-.197c.289 0 .495.066.619.197.124.132.187.326.187.582v.908c0 .257-.063.453-.189.589s-.331.203-.618.203-.497-.069-.623-.202zm.851-.218a.495.495 0 0 0 .06-.239l-.001-.031v.001-1.112l.001-.031a.486.486 0 0 0-.061-.237l.001.002.001.003a.235.235 0 0 0-.097-.071l-.002-.001-.002-.001a.263.263 0 0 0-.132-.015h.002a.268.268 0 0 0-.133.017l.004-.001a.241.241 0 0 0-.1.071l-.001.001a.471.471 0 0 0-.059.264v-.001 1.117l-.001.032c0 .087.022.169.061.24l-.001-.003a.336.336 0 0 0 .361.064l-.002.001-.002.001a.318.318 0 0 0 .104-.066v-.006zm1.169-2.032h.529l.397 1.675.407-1.675h.514l.052 2.418h-.381l-.041-1.681-.392 1.681h-.305l-.406-1.687-.038 1.687h-.385l.048-2.418zm2.493 0h.824c.474 0 .712.229.712.687 0 .438-.25.657-.749.657h-.281v1.075h-.509l.003-2.419zm.704 1.034a.4.4 0 0 0 .28-.077l-.001.001a.393.393 0 0 0 .074-.275v.002l.001-.028a.74.74 0 0 0-.028-.201l.001.005.001.005a.177.177 0 0 0-.038-.067.221.221 0 0 0-.062-.047l-.001-.001-.001-.001a.51.51 0 0 0-.198-.04h-.002l-.027.001h-.197v.723h.198zm1.566-1.034h.546l.56 2.418h-.474l-.111-.557h-.487l-.114.557h-.481l.56-2.418zm.466 1.581-.19-1.015-.19 1.015h.38zm1.093-1.581h.357l.681 1.379v-1.379h.422v2.418h-.339l-.685-1.44v1.44h-.436l.001-2.418zm2.448 1.496-.566-1.493h.477l.346.959.325-.959h.467l-.56 1.493v.922h-.488v-.922zm-12.051 1.98v.126h-.415v.982h-.174v-.982h-.417v-.126h1.006zm1.302 1.109h-.138a.058.058 0 0 1-.034-.011.059.059 0 0 1-.022-.025v-.001l-.12-.263h-.576l-.12.263a.075.075 0 0 1-.018.03.058.058 0 0 1-.034.011h-.137l.509-1.109h.177l.515 1.105zm-.843-.412h.48l-.204-.451a.638.638 0 0 1-.035-.094l-.001-.005-.002-.006-.019.059-.019.047-.201.451zm1.719.303a.54.54 0 0 0 .182-.014l-.004.001a.59.59 0 0 0 .145-.049l-.003.002v-.249h-.205a.04.04 0 0 1-.026-.009l-.008-.009c-.002-.003-.002-.006-.002-.009v-.087h.395v.425a.784.784 0 0 1-.209.089l-.006.001a.787.787 0 0 1-.127.023 1.506 1.506 0 0 1-.14.007h-.015a.771.771 0 0 1-.255-.043l.006.002a.634.634 0 0 1-.205-.117l.001.001.001.001a.53.53 0 0 1-.128-.169l-.001-.003-.001-.003a.541.541 0 0 1-.047-.22v-.016c0-.081.017-.159.047-.229l-.002.004a.51.51 0 0 1 .131-.175l.001-.001a.61.61 0 0 1 .204-.115.946.946 0 0 1 .534-.004c.036.011.07.026.102.044a.755.755 0 0 1 .089.058l-.049.069a.057.057 0 0 1-.016.015.057.057 0 0 1-.056-.003h.001a.69.69 0 0 1-.055-.029l.002.001.003.002a.431.431 0 0 0-.061-.028l-.003-.001-.003-.001a.59.59 0 0 0-.086-.024l-.004-.001-.004-.001a.734.734 0 0 0-.119-.01h-.016a.59.59 0 0 0-.194.032l.005-.001a.431.431 0 0 0-.15.088.374.374 0 0 0-.092.133l-.001.003-.001.003a.503.503 0 0 0 .003.377l-.001-.003-.001-.003a.426.426 0 0 0 .247.226l.003.001a.595.595 0 0 0 .202.022zm1.622-.018h.555v.126h-.725v-1.109h.173l-.004.982zm1.132.127h-.173v-1.109h.173v1.109zm.648-1.104c.01.005.019.012.026.02l.743.836-.001-.02.001-.021v.001-.826h.152v1.114h-.094a.068.068 0 0 1-.032-.007h.001a.079.079 0 0 1-.027-.021l-.743-.835v.862h-.145v-1.109h.09c.01 0 .02.002.029.005zm2.202-.005v.122h-.616v.366h.5v.118h-.5v.378h.616v.122h-.796v-1.107h.796zM6.336 9.61l7.723 1.893v6.635l-7.723-1.893V9.609zm-.495-.566v7.523l8.713 2.137v-7.522L5.841 9.045z"/><path d="m10.511 22.196-8.714-2.138v-7.522l8.714 2.137v7.523zM5.985 9.524l7.623 1.869-3.242 2.8-7.623-1.871 3.243-2.799zm-.144-.48-4.044 3.491 8.714 2.138 4.043-3.492-8.713-2.137zm5.16 12.728 3.553-3.069L11 17.832v3.941z"/></symbol><symbol id="icon-clock" viewBox="0 0 32 32"><path fill="#212121" d="M31.296 15.301C31.295 6.849 24.441-.002 15.988 0S.685 6.855.687 15.308c.002 6.788 4.422 12.543 10.541 14.545l.108.031a.667.667 0 0 0 .529-.065.636.636 0 0 0 .283-.357l3.865-12.25a1.913 1.913 0 1 0-.852-3.63l.011-.005-5.106-5.107a.638.638 0 0 0-.902.902l5.103 5.109a1.847 1.847 0 0 0-.191.826c0 .602.283 1.137.723 1.48l.004.003-3.682 11.673C3.843 25.782.117 17.709 2.797 10.431S13.551-.573 20.829 2.108c7.278 2.681 11.004 10.754 8.323 18.032-1.345 3.581-4.003 6.406-7.374 7.938l-.088.036-.398-1.874a.639.639 0 0 0-1.05-.343l.001-.001-3.837 3.426a.637.637 0 0 0 .227 1.083l.005.001 4.899 1.563a.637.637 0 0 0 .818-.744l.001.004-.391-1.839c5.528-2.374 9.329-7.772 9.329-14.057v-.034.002zm-15.304-.637a.638.638 0 0 1 0 1.276.638.638 0 0 1 0-1.276zm2.1 14.864 2.184-1.948.603 2.84-2.787-.892z" style="fill:var(--color1, #212121)"/><path fill="#2196f3" d="M15.354 3.185V4.46a.638.638 0 0 0 1.276 0V3.185a.638.638 0 1 0-1.276 0zM3.876 14.664a.638.638 0 0 0 0 1.276h1.275a.638.638 0 0 0 0-1.276H3.876zm24.232 1.275a.638.638 0 0 0 0-1.276h-1.275a.638.638 0 0 0 0 1.276h1.275z" style="fill:var(--color2, #2196f3)"/></symbol><symbol id="icon-diagram" viewBox="0 0 32 32"><path fill="#2196f3" d="M14.926 14.965h1.066v4.798h-1.066v-4.798zm4.264 2.132h1.066v2.665H19.19v-2.665zm-8.529 1.599h1.066v1.066h-1.066v-1.066zm-3.198-.533h1.066v1.599H7.463v-1.599z" style="fill:var(--color2, #2196f3)"/><path fill="#212121" d="M1.599 28.291h25.586a1.6 1.6 0 0 0 1.599-1.599V24.56a1.6 1.6 0 0 0-1.599-1.599h-.533V9.667l3.028-2.868a1.608 1.608 0 1 0-.742-.752l-.004-.01-2.281 2.162v-1.23a1.6 1.6 0 0 0-1.599-1.599H3.731a1.6 1.6 0 0 0-1.599 1.599v15.992h-.533A1.6 1.6 0 0 0 0 24.56v2.132a1.6 1.6 0 0 0 1.599 1.599zM30.384 4.837a.533.533 0 0 1 0 1.066.533.533 0 0 1 0-1.066zM3.198 6.969c0-.294.239-.533.533-.533h21.323c.294 0 .533.239.533.533v2.239l-1.066 1.013V8.036a.534.534 0 0 0-.534-.534H4.798a.534.534 0 0 0-.534.533v13.327c0 .294.239.533.534.533h19.189a.534.534 0 0 0 .534-.533v-9.675l1.066-1.01V22.96H3.198V6.969zm4.798 6.93h-.005a1.6 1.6 0 1 0 1.112 2.748l1.853.93a.535.535 0 0 0 .636-.122l3.939-4.432 3.872 2.902a.534.534 0 0 0 .686-.039l3.365-3.188v8.131H5.331V8.568h18.123v2.661l-3.771 3.572-3.904-2.927a.534.534 0 0 0-.718.071v.001l-3.993 4.493-1.493-.746c.011-.064.017-.128.02-.193a1.6 1.6 0 0 0-1.599-1.599zm.533 1.599a.533.533 0 0 1-1.066 0 .533.533 0 0 1 1.066 0zm3.198 8.528h5.33v.533a.533.533 0 0 1-.533.533h-4.265a.533.533 0 0 1-.533-.533v-.533zm-10.66.534c0-.294.238-.533.533-.533h9.062v.533a1.6 1.6 0 0 0 1.599 1.599h4.265a1.6 1.6 0 0 0 1.599-1.599v-.533h9.062c.294 0 .533.239.533.533v2.132a.533.533 0 0 1-.533.533H1.601a.533.533 0 0 1-.533-.533V24.56z" style="fill:var(--color1, #212121)"/></symbol><symbol id="icon-envelope" viewBox="0 0 32 32"><path d="M28.775 4.093H2.976A2.98 2.98 0 0 0-.001 7.07v17.86a2.98 2.98 0 0 0 2.977 2.977h25.799a2.98 2.98 0 0 0 2.977-2.977V7.07a2.98 2.98 0 0 0-2.977-2.977zm0 1.985a.98.98 0 0 1 .38.077l-13.279 11.51L2.597 6.155a.972.972 0 0 1 .38-.077h25.799zm0 19.844H2.976a.992.992 0 0 1-.992-.992V8.251l13.241 11.476a.991.991 0 0 0 1.302-.002l-.001.001L29.767 8.25v16.679a.992.992 0 0 1-.992.992z"/></symbol><symbol id="icon-facebook" viewBox="0 0 32 32"><path d="M21.329 5.313h2.921V.225C23.746.156 22.013 0 19.994 0c-4.212 0-7.097 2.649-7.097 7.519V12H8.249v5.688h4.648V32h5.699V17.689h4.46l.708-5.688h-5.169V8.082c.001-1.644.444-2.769 2.735-2.769z"/></symbol><symbol id="icon-instagram" viewBox="0 0 32 32"><path d="M31.969 9.408c-.075-1.7-.35-2.869-.744-3.882a7.847 7.847 0 0 0-1.85-2.837l-.001-.001A7.88 7.88 0 0 0 26.596.862l-.054-.018C25.523.45 24.36.175 22.66.1 20.947.019 20.403 0 16.059 0s-4.888.019-6.595.094c-1.7.075-2.869.35-3.882.744a7.845 7.845 0 0 0-2.837 1.849l-.001.001A7.89 7.89 0 0 0 .918 5.466L.9 5.52C.506 6.539.231 7.702.156 9.402c-.081 1.713-.1 2.257-.1 6.601s.019 4.888.094 6.595c.075 1.7.35 2.869.744 3.882a7.941 7.941 0 0 0 1.849 2.837l.001.001a7.89 7.89 0 0 0 2.778 1.826l.054.018c1.019.394 2.182.669 3.882.744 1.706.075 2.25.094 6.595.094s4.888-.019 6.595-.094c1.7-.075 2.869-.35 3.882-.744a8.233 8.233 0 0 0 4.663-4.627l.019-.055c.394-1.019.669-2.182.744-3.882.075-1.707.094-2.251.094-6.595s-.006-4.888-.081-6.595zm-2.882 13.065c-.069 1.563-.331 2.407-.55 2.969a5.334 5.334 0 0 1-3.002 3.025l-.036.013c-.563.219-1.413.481-2.969.55-1.688.075-2.194.094-6.464.094s-4.782-.019-6.464-.094c-1.563-.069-2.407-.331-2.969-.55a4.947 4.947 0 0 1-1.837-1.193l-.001-.001a4.988 4.988 0 0 1-1.183-1.804l-.011-.034c-.219-.563-.481-1.413-.55-2.969-.075-1.688-.094-2.194-.094-6.464s.019-4.782.094-6.464c.069-1.563.331-2.407.55-2.969a4.885 4.885 0 0 1 1.198-1.836l.002-.002a4.988 4.988 0 0 1 1.804-1.183l.034-.011c.563-.219 1.413-.481 2.969-.55 1.688-.075 2.194-.094 6.464-.094 4.276 0 4.782.019 6.464.094 1.563.069 2.407.331 2.969.55a4.947 4.947 0 0 1 1.837 1.193l.001.001a4.988 4.988 0 0 1 1.183 1.804l.011.034c.219.563.481 1.413.55 2.969.075 1.688.094 2.194.094 6.464s-.019 4.77-.094 6.458z"/><path d="M16.059 7.783c-4.538 0-8.22 3.682-8.22 8.22s3.682 8.22 8.22 8.22c4.539 0 8.22-3.682 8.22-8.22s-3.682-8.22-8.22-8.22zm0 13.552a5.334 5.334 0 0 1-.006-10.664h.005a5.334 5.334 0 0 1 .006 10.664h-.005zM26.524 7.458a1.919 1.919 0 1 1-3.838 0 1.919 1.919 0 1 1 3.838 0z"/></symbol><symbol id="icon-linkedin" viewBox="0 0 32 32"><path d="M31.992 32v-.001H32V20.263c0-5.741-1.236-10.164-7.948-10.164-3.227 0-5.392 1.771-6.276 3.449h-.093v-2.913h-6.364v21.364h6.627V21.42c0-2.785.528-5.479 3.977-5.479 3.399 0 3.449 3.179 3.449 5.657v10.401h6.62zM.528 10.636h6.635V32H.528V10.636zM3.843 0C1.722 0 0 1.721 0 3.843s1.721 3.879 3.843 3.879c2.121 0 3.843-1.757 3.843-3.879A3.846 3.846 0 0 0 3.843 0z"/></symbol><symbol id="icon-smartphone" viewBox="0 0 32 32"><path d="M23 0H9C7.346 0 6 1.346 6 3v26c0 1.654 1.346 3 3 3h14c1.654 0 3-1.346 3-3V3c0-1.654-1.346-3-3-3zM9 2h14a1 1 0 0 1 1 1v21H8V3a1 1 0 0 1 1-1zm14 28H9a1 1 0 0 1-1-1v-3h16v3a1 1 0 0 1-1 1z"/><path d="M10.707 27.478c.391.365.391.956 0 1.321s-1.024.365-1.414 0c-.391-.365-.391-.956 0-1.321s1.024-.365 1.414 0z"/></symbol><symbol id="icon-twitter" viewBox="0 0 32 32"><path d="M32 6.078c-1.19.522-2.458.868-3.78 1.036a6.555 6.555 0 0 0 2.873-3.58l.013-.046a12.858 12.858 0 0 1-4.076 1.574l-.084.014A6.559 6.559 0 0 0 22.154 3c-3.632 0-6.556 2.948-6.556 6.562 0 .52.044 1.02.152 1.496-5.454-.266-10.28-2.88-13.522-6.862a6.533 6.533 0 0 0-.898 3.316 6.56 6.56 0 0 0 2.891 5.437l.023.015a6.454 6.454 0 0 1-2.997-.825l.033.017v.072c0 3.188 2.274 5.836 5.256 6.446a6.408 6.408 0 0 1-1.669.216h-.054.003a5.842 5.842 0 0 1-1.279-.118l.037.006c.85 2.598 3.262 4.508 6.13 4.57a13.098 13.098 0 0 1-8.12 2.798h-.015.001c-.538 0-1.054-.024-1.57-.09C2.826 27.902 6.287 29 10.004 29h.063-.003c12.072 0 18.672-10 18.672-18.668 0-.29-.01-.57-.024-.848a13.186 13.186 0 0 0 3.258-3.359l.03-.047z"/></symbol></defs></svg>